<svg xmlns="http://www.w3.org/2000/svg" viewBox="0 0 448 512" width="100%" height="100%">
  <path fill="#3b82f6" d="M424 64h-88c-13.3 0-24 10.7-24 24v24c0 13.3 10.7 24 24 24h32v40c0 74.2-50.5 137.6-118 155.2V224h22c13.3 0 24-10.7 24-24v-24c0-13.3-10.7-24-24-24h-22V88c0-13.3-10.7-24-24-24h-24c-13.3 0-24 10.7-24 24v64h-22c-13.3 0-24 10.7-24 24v24c0 13.3 10.7 24 24 24h22v107.2C106.5 307.6 56 244.2 56 170v-40h32c13.3 0 24-10.7 24-24V88c0-13.3-10.7-24-24-24H24C10.7 64 0 74.7 0 88v24c0 13.3 10.7 24 24 24h8v34c0 114.9 83.1 210.3 192 227.3V400h-36c-13.3 0-24 10.7-24 24v24c0 13.3 10.7 24 24 24h96c13.3 0 24-10.7 24-24v-24c0-13.3-10.7-24-24-24h-36v-46.7c108.9-17 192-112.4 192-227.3v-34h8c13.3 0 24-10.7 24-24V88c0-13.3-10.7-24-24-24z"/>
</svg>
